<?xml version="1.0" encoding="utf-8"?>
<!-- Generator: Adobe Illustrator 21.1.0, SVG Export Plug-In . SVG Version: 6.00 Build 0)  -->
<svg version="1.1" id="Layer_1" xmlns="http://www.w3.org/2000/svg" xmlns:xlink="http://www.w3.org/1999/xlink" x="0px" y="0px"
	 viewBox="0 0 613.5 343.5" style="enable-background:new 0 0 613.5 343.5;" xml:space="preserve">
<style type="text/css">
	.st0{fill:none;stroke:#0052CC;stroke-width:3;stroke-linecap:round;stroke-linejoin:round;stroke-miterlimit:10;}
	.st1{fill:#79E2F2;stroke:#0052CC;stroke-width:3;stroke-miterlimit:10;}
	.st2{fill:#57D9A3;stroke:#0052CC;stroke-width:3;stroke-miterlimit:10;}
	.st3{fill:#2684FF;stroke:#0052CC;stroke-width:3;stroke-linecap:round;stroke-linejoin:round;stroke-miterlimit:10;}
	.st4{fill:none;stroke:#0052CC;stroke-width:1.5;stroke-linecap:round;stroke-linejoin:round;stroke-miterlimit:10;}
	.st5{fill:none;}
	.st6{fill:#2684FF;}
	.st7{font-family:'CircularPro-Bold';}
	.st8{font-size:12px;}
	.st9{fill:none;stroke:#2684FF;stroke-width:1.5;stroke-miterlimit:10;}
</style>
<path class="st0" d="M202.3,99.7h-50.7l-71.9,71.9"/>
<circle class="st1" cx="195" cy="99.7" r="21"/>
<path class="st0" d="M550.3,243.5h-190l-71.9-71.9"/>
<circle class="st2" cx="403.6" cy="243.5" r="21"/>
<circle class="st2" cx="476.6" cy="243.5" r="21"/>
<circle class="st2" cx="549.5" cy="243.5" r="21"/>
<path class="st0" d="M26.8,171.6h322.7"/>
<circle class="st3" cx="31" cy="171.6" r="21"/>
<circle class="st3" cx="155.1" cy="171.6" r="21"/>
<circle class="st3" cx="229.1" cy="171.6" r="21"/>
<circle class="st3" cx="370.5" cy="171.6" r="21"/>
<g>
	<path class="st4" d="M194.7,64.3V40.8 M202.6,58.5l-7.9,7.9l-8-7.9"/>
</g>
<g>
	<path class="st4" d="M549.6,278.7v23.5 M541.6,284.6l7.9-7.9l8,7.9"/>
</g>
<g>
	<path class="st4" d="M370.8,136.3v-23.5 M378.7,130.5l-7.9,7.9l-8-7.9"/>
</g>
<rect x="335.4" y="93.6" class="st5" width="70.7" height="18"/>
<text transform="matrix(1 0 0 1 346.1165 102.3241)" class="st6 st7 st8">MASTER</text>
<path class="st9" d="M254.4,40h-119c-2.5,0-4.6-2-4.6-4.6V16.1c0-2.5,2-4.6,4.6-4.6h119c2.5,0,4.6,2,4.6,4.6v19.4
	C259,37.9,256.9,40,254.4,40z"/>
<path class="st9" d="M415.8,111.3h-90.2c-2.5,0-4.6-2-4.6-4.6V87.4c0-2.5,2-4.6,4.6-4.6h90.2c2.5,0,4.6,2,4.6,4.6v19.4
	C420.4,109.3,418.3,111.3,415.8,111.3z"/>
<g>
	<text transform="matrix(1 0 0 1 145.3222 30.1991)" class="st6 st7 st8">LITTLE FEATURE</text>
</g>
<path class="st9" d="M599.3,331.3h-98.8c-2.5,0-4.6-2-4.6-4.6v-19.4c0-2.5,2-4.6,4.6-4.6h98.8c2.5,0,4.6,2,4.6,4.6v19.4
	C603.9,329.2,601.8,331.3,599.3,331.3z"/>
<g>
	<text transform="matrix(1 0 0 1 510.1608 321.4845)" class="st6 st7 st8">BIG FEATURE</text>
</g>
</svg>
